HIERARCHY
ROOT hip
{
	OFFSET 0.000000 0.000000 0.000000 
	CHANNELS 6 Xposition Yposition Zposition Xrotation Zrotation Yrotation
	JOINT abdomen
	{
		OFFSET 0.000000 3.402643 0.000000 
		CHANNELS 3 Xrotation Zrotation Yrotation
		JOINT chest
		{
			OFFSET 0.000000 8.438565 -0.680529 
			CHANNELS 3 Xrotation Zrotation Yrotation
			JOINT neck
			{
				OFFSET 0.000000 10.207942 -0.272212 
				CHANNELS 3 Xrotation Zrotation Yrotation
				JOINT head
				{
					OFFSET 0.000000 3.130431 0.000000 
					CHANNELS 3 Xrotation Zrotation Yrotation
					End Site
					{
						OFFSET 0.000000 3.130435 0.000000 
					}
				}
			}
			JOINT lCollar
			{
				OFFSET 3.470700 6.669187 -0.816635 
				CHANNELS 3 Yrotation Zrotation Xrotation
				JOINT lShldr
				{
					OFFSET 3.198488 0.000000 0.000000 
					CHANNELS 3 Zrotation Yrotation Xrotation
					JOINT lForeArm
					{
						OFFSET 10.139888 0.000000 0.000000 
						CHANNELS 3 Yrotation Zrotation Xrotation
						JOINT lHand
						{
							OFFSET 8.370511 0.000000 0.000000 
							CHANNELS 3 Zrotation Yrotation Xrotation
							End Site
							{
								OFFSET 4.083176 0.000000 0.000000 
							}
						}
					}
				}
			}
			JOINT rCollar
			{
				OFFSET -3.470700 6.669187 -0.816635 
				CHANNELS 3 Yrotation Zrotation Xrotation
				JOINT rShldr
				{
					OFFSET -3.198488 0.000000 0.000000 
					CHANNELS 3 Zrotation Yrotation Xrotation
					JOINT rForeArm
					{
						OFFSET -10.139888 0.000000 0.000000 
						CHANNELS 3 Yrotation Zrotation Xrotation
						JOINT rHand
						{
							OFFSET -8.370511 0.000000 0.000000 
							CHANNELS 3 Zrotation Yrotation Xrotation
							End Site
							{
								OFFSET -4.083176 0.000000 0.000000 
							}
						}
					}
				}
			}
		}
	}
	JOINT lThigh
	{
		OFFSET 5.308129 -1.633274 1.361059 
		CHANNELS 3 Xrotation Zrotation Yrotation
		JOINT lShin
		{
			OFFSET -2.041588 -20.007561 0.000000 
			CHANNELS 3 Xrotation Zrotation Yrotation
			JOINT lFoot
			{
				OFFSET 0.000000 -19.190928 -1.224953 
				CHANNELS 3 Xrotation Yrotation Zrotation
				End Site
				{
					OFFSET 0.000000 -2.449906 4.627600 
				}
			}
		}
	}
	JOINT rThigh
	{
		OFFSET -5.308129 -1.633274 1.361059 
		CHANNELS 3 Xrotation Zrotation Yrotation
		JOINT rShin
		{
			OFFSET 2.041588 -20.007561 0.000000 
			CHANNELS 3 Xrotation Zrotation Yrotation
			JOINT rFoot
			{
				OFFSET 0.000000 -19.190928 -1.224953 
				CHANNELS 3 Xrotation Yrotation Zrotation
				End Site
				{
					OFFSET 0.000000 -2.449906 4.627600 
				}
			}
		}
	}
}
MOTION
Frames: 8
Frame Time: 0.011111
-0.404887 50.393726 40.151302 -23.260002 2.598815 -157.961380 -0.218745 0.358945 -4.978491 -22.150602 -4.005484 -2.077025 -20.585770 -15.468191 -5.337367 41.459362 25.399834 -14.431165 -5.788594 -15.737329 -1.465587 19.981153 -34.216908 -4.097958 -41.862152 5.389775 5.049392 8.524705 12.647240 -88.645889 7.611086 14.174596 -1.900835 -14.243202 25.222111 -17.825523 42.617405 -5.653187 5.329228 -8.534408 -12.637552 43.441265 0.096718 18.079309 7.555202 30.412848 -5.315742 -4.897070 18.395149 14.412698 -6.247526 -48.670696 -8.310106 -15.926623 47.101738 4.052517 6.861618 -57.486908 -10.233905 -18.273317 
-0.324549 50.440456 39.857803 -22.731663 1.759256 -159.047119 0.445398 -0.095716 -5.696950 -23.068918 -3.871222 -2.260552 -20.205885 -14.906512 -4.882796 42.297493 25.026720 -13.493601 -5.788594 -15.737329 -1.465587 19.975225 -34.167763 -3.346830 -41.830849 5.371782 5.036049 8.524705 12.647240 -90.423225 7.611086 14.174596 -1.900835 -14.384059 23.888744 -18.162670 42.321247 -5.552857 5.224877 -8.534408 -12.637552 40.960796 0.213794 18.812101 6.507738 30.503576 -5.306237 -4.902540 16.886589 13.260066 -5.681534 -47.706810 -7.662921 -14.650532 46.993622 4.062389 6.846835 -57.833092 -9.527972 -17.913868 
-0.240692 50.451981 39.569103 -22.243652 1.016146 -160.201263 0.668167 -0.646032 -6.245975 -22.872244 -3.627892 -2.398752 -19.650335 -14.478136 -4.607397 42.235504 24.960709 -12.830749 -5.788594 -15.737329 -1.465587 20.092476 -34.309715 -0.687535 -42.279503 5.529043 5.202560 8.524705 12.647240 -89.075577 7.611086 14.174596 -1.900835 -14.653406 22.521826 -18.383762 42.209171 -5.515755 5.184997 -8.534408 -12.637552 39.652203 0.379676 19.601974 5.588959 30.204897 -5.315510 -4.868087 14.284606 13.345505 -5.411962 -46.707165 -6.913767 -13.674668 46.836128 4.072071 6.837689 -58.008682 -9.219522 -17.750521 
-0.175397 50.484631 39.282959 -21.677536 0.412353 -161.230743 0.902446 -0.951168 -6.858061 -22.949774 -3.594866 -2.563003 -18.836967 -13.905860 -4.332633 42.178043 24.823572 -12.153727 -5.788594 -15.737329 -1.465587 20.212957 -34.539864 3.247650 -42.963165 5.753326 5.445849 8.524705 12.647240 -85.472061 7.611086 14.174596 -1.900835 -14.776947 21.148716 -18.753450 42.127838 -5.489030 5.151324 -8.534408 -12.637552 38.177593 0.575480 20.521803 4.723921 29.552879 -5.364509 -4.793558 10.639353 14.314648 -5.132245 -45.432888 -6.257516 -13.121017 46.520844 4.101498 6.812571 -57.924164 -9.070220 -17.543261 
-0.073616 50.539040 39.006744 -21.183407 -0.100825 -162.328201 1.124448 -1.236122 -7.538766 -23.183355 -3.523345 -2.751280 -18.362547 -13.154191 -3.933882 42.558422 24.364464 -11.311917 -5.788594 -15.737329 -1.465587 20.203562 -34.686146 4.415305 -42.932384 5.743163 5.438530 8.524705 12.647240 -85.403702 7.611086 14.174596 -1.900835 -14.896809 19.834137 -18.366175 42.229515 -5.520162 5.184251 -8.534408 -12.637552 37.513531 0.497605 21.527597 4.022997 28.723663 -5.403331 -4.670418 7.611553 14.421089 -4.673278 -44.310917 -5.496811 -12.244468 46.028229 4.166944 6.739035 -57.925488 -8.885469 -17.393042 
0.049611 50.596012 38.751968 -20.923243 -0.745393 -163.597137 1.281905 -1.782645 -8.146520 -23.143290 -3.396602 -2.910367 -18.529743 -12.367782 -3.548646 43.134743 23.980186 -10.453637 -5.788594 -15.737329 -1.465587 20.273640 -34.855450 5.922392 -43.269310 5.849965 5.562783 8.524705 12.647240 -83.391975 7.611086 14.174596 -1.900835 -14.882760 18.797287 -18.957634 42.239895 -5.526278 5.192021 -8.534408 -12.637552 36.702988 0.292334 22.267832 3.473630 27.690168 -5.461883 -4.542748 3.169206 15.728679 -4.021325 -43.553059 -4.853626 -11.054407 45.436924 4.222489 6.681127 -57.547916 -9.508738 -17.693684 
0.143070 50.670586 38.511917 -20.701288 -1.371256 -164.951645 1.321101 -2.227163 -8.659131 -23.035009 -3.304186 -3.060472 -18.413712 -11.791396 -3.206157 43.392494 23.743048 -9.717269 -5.788594 -15.737329 -1.465587 20.161539 -34.919022 7.260201 -43.606739 5.954307 5.679772 8.524705 12.647240 -81.165421 7.611086 14.174596 -1.900835 -15.004213 17.805414 -19.548914 42.209171 -5.515755 5.184997 -8.534408 -12.637552 36.263531 -0.020490 22.894012 2.968615 26.747330 -5.504599 -4.408991 -3.143060 17.146837 -2.651235 -42.750912 -4.335241 -10.212949 44.787632 4.257556 6.620038 -56.722279 -10.656463 -18.003059 
0.241651 50.737160 38.238575 -20.283047 -2.194391 -165.860321 1.496600 -2.951526 -9.564547 -23.131037 -3.084244 -3.307481 -18.053957 -11.088245 -2.867451 43.644306 23.200666 -9.092241 -5.788594 -15.737329 -1.465587 19.784388 -35.049458 7.518097 -43.668186 5.974525 5.704710 8.524705 12.647240 -80.188858 7.611086 14.174596 -1.900835 -15.236156 16.632656 -19.988482 42.158325 -5.500194 5.168994 -8.534408 -12.637552 35.921730 -0.205287 23.338993 2.087171 25.679432 -5.559533 -4.286368 -12.159032 17.251375 -0.128319 -41.519756 -4.130134 -9.595706 44.206081 4.306564 6.559703 -56.439499 -10.829341 -17.936663 
